External Loads File
version=1
nRows=30
nColumns=13
Range=5.000000e-03-10 seconds
endheader
time 	forceRightX 	forceRightY 	forceRightZ 	pointRightX 	pointRightY 	pointRightZ 	forceLeftX 	forceLeftY 	forceLeftZ 	pointLeftX 	pointLeftY 	pointLeftZ 		
7.505000 229.937866 908.357397 -0.000000 0.322993 0.162622 -0.116968 -1.696224 28.410923 -0.000000 0.261101 0.495181 -0.365148
7.510000 235.217716 869.311991 -0.000000 0.313680 0.159988 -0.116815 -5.760329 50.493020 -0.000000 0.270523 0.497230 -0.365357
7.515000 238.789139 828.524430 -0.000000 0.304250 0.157946 -0.116656 -9.517514 72.185616 -0.000000 0.280119 0.499023 -0.365592
7.520000 240.514586 786.595879 -0.000000 0.294671 0.156509 -0.116307 -13.179429 92.271056 -0.000000 0.289707 0.500291 -0.365708
7.525000 240.703870 743.747416 -0.000000 0.284948 0.155829 -0.116151 -16.974890 109.774574 -0.000000 0.299232 0.501007 -0.364927
7.530000 239.045802 700.091596 -0.000000 0.275177 0.155781 -0.115873 -21.234505 124.054547 -0.000000 0.308324 0.500942 -0.365601
7.535000 237.342458 654.771080 -0.000000 0.265254 0.156684 -0.115703 -25.923414 135.013765 -0.000000 0.317477 0.499808 -0.365575
7.540000 235.361382 607.425709 -0.000000 0.254939 0.158317 -0.115862 -31.245830 143.052125 -0.000000 0.326561 0.499226 -0.365547
7.545000 232.003734 558.018077 -0.000000 0.245140 0.160648 -0.115639 -37.487543 148.936742 -0.000000 0.335552 0.497431 -0.365170
7.550000 227.218215 506.194562 -0.000000 0.235405 0.163802 -0.115239 -44.504252 153.708469 -0.000000 0.344004 0.494924 -0.365136
7.555000 220.852000 451.745165 -0.000000 0.226020 0.167871 -0.115077 -51.986596 158.501026 -0.000000 0.352243 0.491753 -0.365099
7.560000 212.230315 394.889835 -0.000000 0.217058 0.172738 -0.115040 -59.728037 164.394576 -0.000000 0.360126 0.487911 -0.365160
7.565000 201.241146 335.896725 -0.000000 0.208287 0.178495 -0.115011 -67.342678 172.478340 -0.000000 0.367607 0.483282 -0.365237
7.570000 187.062502 276.048437 -0.000000 0.199958 0.184701 -0.115008 -74.948618 183.557558 -0.000000 0.374776 0.478399 -0.365341
7.575000 170.093315 216.650125 -0.000000 0.192078 0.191300 -0.115056 -82.411771 198.368932 -0.000000 0.381303 0.472365 -0.364856
7.580000 151.230133 158.948147 -0.000000 0.184529 0.198479 -0.115164 -89.322891 217.525544 -0.000000 0.387614 0.465299 -0.365057
7.585000 130.696937 104.748167 -0.000000 0.177466 0.206088 -0.115171 -96.260265 240.914849 -0.000000 0.393431 0.458189 -0.365265
7.590000 109.677052 54.791561 -0.000000 0.170807 0.213932 -0.115291 -102.819289 268.491866 -0.000000 0.398908 0.450220 -0.365648
7.595000 88.951901 9.820587 -0.000000 0.164582 0.222481 -0.115357 -108.820936 299.797156 -0.000000 0.403915 0.441706 -0.365833
7.600000 69.115335 -29.704602 -0.000000 0.158839 0.231401 -0.115420 -113.565745 334.292880 -0.000000 0.409086 0.432417 -0.366431
7.605000 50.660503 -63.207200 -0.000000 0.153665 0.240639 -0.115406 -117.479608 370.878019 -0.000000 0.413528 0.422695 -0.366621
7.610000 34.040389 -90.538446 -0.000000 0.149026 0.250079 -0.115530 -120.348626 408.640549 -0.000000 0.417585 0.412921 -0.366678
7.615000 19.632290 -111.692808 -0.000000 0.145094 0.259661 -0.115628 -122.279302 446.608213 -0.000000 0.421123 0.403235 -0.366655
7.620000 7.387137 -126.886682 -0.000000 0.141863 0.269289 -0.115367 -122.227656 484.225918 -0.000000 0.424241 0.393013 -0.366579
7.625000 -2.434492 -136.487738 -0.000000 0.139214 0.278811 -0.115274 -120.855428 520.653996 -0.000000 0.426768 0.382728 -0.366430
7.630000 -10.064242 -141.167395 -0.000000 0.137235 0.288604 -0.114883 -117.254746 555.710776 -0.000000 0.428964 0.372249 -0.366083
7.635000 -15.549435 -141.832801 -0.000000 0.135781 0.298670 -0.114767 -111.621838 589.240074 -0.000000 0.430585 0.361628 -0.365888
7.640000 -18.878341 -139.600898 -0.000000 0.135051 0.308655 -0.114493 -105.140223 621.241693 -0.000000 0.431815 0.351006 -0.365663
7.645000 -20.333576 -135.570961 -0.000000 0.134743 0.318824 -0.114287 -98.782116 652.098725 -0.000000 0.432493 0.340873 -0.365173
7.650000 -20.769252 -130.527771 -0.000000 0.134969 0.328859 -0.114140 -91.255984 682.710358 -0.000000 0.432673 0.330098 -0.364793
